<?xml version="1.0" encoding="UTF-8" standalone="no"?>
<!-- Created with Inkscape (http://www.inkscape.org/) -->

<svg
   xml:space="preserve"
   sodipodi:docname="Fybacast.svg.2023_06_26_12_08_50.0.svg"
   inkscape:version="1.2.2 (732a01da63, 2022-12-09)"
   id="svg5"
   version="1.1"
   viewBox="0 0 8.472061 8.0416262"
   height="30.393549"
   width="32.02039"
   xmlns:inkscape="http://www.inkscape.org/namespaces/inkscape"
   xmlns:sodipodi="http://sodipodi.sourceforge.net/DTD/sodipodi-0.dtd"
   xmlns="http://www.w3.org/2000/svg"
   xmlns:svg="http://www.w3.org/2000/svg"><sodipodi:namedview
     id="namedview7"
     pagecolor="#ffffff"
     bordercolor="#000000"
     borderopacity="0.25"
     inkscape:showpageshadow="2"
     inkscape:pageopacity="0.0"
     inkscape:pagecheckerboard="0"
     inkscape:deskcolor="#d1d1d1"
     inkscape:document-units="mm"
     showgrid="false"
     inkscape:zoom="0.18487887"
     inkscape:cx="9227.6637"
     inkscape:cy="6804.4554"
     inkscape:window-width="1366"
     inkscape:window-height="705"
     inkscape:window-x="-8"
     inkscape:window-y="-8"
     inkscape:window-maximized="1"
     inkscape:current-layer="layer1"
     showguides="false"><sodipodi:guide
       position="870.22431,869.49709"
       orientation="0,-1"
       id="guide7750"
       inkscape:locked="false" /></sodipodi:namedview><defs
     id="defs2"><linearGradient
       id="linearGradient48531"
       inkscape:swatch="solid"><stop
         style="stop-color:#a44f66;stop-opacity:1;"
         offset="0"
         id="stop48529" /></linearGradient></defs><g
     inkscape:label="Layer 1"
     inkscape:groupmode="layer"
     id="layer1"
     transform="translate(999.28683,858.75415)"><path
       id="path1481"
       style="fill:#ffffff;stroke-width:0.264583"
       d="m -995.94103,-858.75414 a 3.3457924,3.3457924 0 0 0 -3.3458,3.3458 3.3457924,3.3457924 0 0 0 3.3458,3.3458 3.3457924,3.3457924 0 0 0 2.32408,-0.93915 l 2.37516,2.28917 0.42702,-0.4463 -2.3987,-2.31181 a 3.3457924,3.3457924 0 0 0 0.61824,-1.93771 3.3457924,3.3457924 0 0 0 -3.3458,-3.3458 z m 0,0.61768 a 2.7281076,2.7281076 0 0 1 2.72808,2.72812 2.7281076,2.7281076 0 0 1 -2.72808,2.72808 2.7281076,2.7281076 0 0 1 -2.72813,-2.72808 2.7281076,2.7281076 0 0 1 2.72813,-2.72812 z"
       inkscape:export-filename=".\searchIcon.svg"
       inkscape:export-xdpi="96"
       inkscape:export-ydpi="96" /></g></svg>
